<?xml version="1.0" encoding="utf-8"?>
<svg xmlns="http://www.w3.org/2000/svg" viewBox="0.0005 -0.0001 1321.4395 1345.2506" width="1321.44px" height="1345.25px">
  <g id="Logo" transform="matrix(1, 0, 0, 1, 2.842170943040401e-14, 0)">
    <g id="F">
      <path id="Top-corner" d="M660.724,30.673C757.343,30.362 858.048,47.032 927.867,61.664C864.974,38.779 726.497,-1.097 660.421,0.023C594.344,1.143 455.087,40.705 392.184,62.172C445.754,50.042 564.105,30.983 660.724,30.673Z"/>
      <path id="Left-corner" d="M25.896,1117.42C-2.153,1083.43 0.354,971.734 0.003,943.769C20.281,1012.08 31.73,1065.76 54.459,1097.23C76.246,1127.4 109.558,1147.05 169.209,1188.43C145.6,1179.8 53.946,1151.41 25.896,1117.42Z"/>
      <path id="Right-dot" d="M1027.79,708.606C984.838,724.292 954.378,780.475 954.378,826.203C954.378,871.93 984.781,905.791 1027.79,890.263C1070.8,874.735 1101.2,818.489 1101.2,772.762C1101.2,727.035 1070.74,692.921 1027.79,708.606Z"/>
      <path id="Left-dot" d="M293.656,708.606C336.609,724.292 367.07,780.475 367.07,826.203C367.07,871.93 336.667,905.791 293.656,890.263C250.646,874.735 220.243,818.489 220.243,772.762C220.243,727.035 250.704,692.921 293.656,708.606Z"/>
      <ellipse id="Top-dot" cx="660.724" cy="207.635" rx="97.62" ry="33.239"/>
      <path id="Main-shape" d="M734.135,1073.41C734.135,1101.92 734.752,1187.75 734.137,1233.73C733.067,1313.81 894.115,1279.71 954.378,1260.45L880.964,1287.17C763.645,1329.79 706.145,1345.35 660.699,1345.25L660.748,1345.25C615.302,1345.35 557.803,1329.79 440.483,1287.17L367.07,1260.45C427.333,1279.71 588.38,1313.81 587.31,1233.73C586.696,1187.75 587.313,1101.92 587.313,1073.41L587.313,699.321C587.313,603.936 587.133,553.363 569.896,523.843C534.657,463.495 137.295,303.741 53.915,334.089C-1.282,354.179 0.003,485.559 0.003,485.559L0.003,351.957C0.003,220.858 0.855,204.61 183.544,138.117C256.931,111.406 220.243,124.754 220.243,124.754C150.824,149.271 109.366,185.02 109.366,219.985C109.366,274.765 432.843,423.161 660.543,423.161C852.032,423.161 1197.03,267.097 1211.06,218.37C1220.68,184.921 1174.27,150.559 1101.2,124.754C1101.2,124.754 1064.52,111.406 1137.9,138.117C1320.59,204.61 1321.44,220.858 1321.44,351.957L1321.44,485.559C1321.44,485.559 1319.1,308.902 1224.42,343.363C1115.47,383.015 867.165,475.867 794.837,501.464C734.55,522.8 734.135,554.188 734.135,699.321L734.135,806.407C734.135,847.261 738.329,867.471 826.223,835.48C854.714,825.11 906.701,800.313 929.318,763.614C907.795,811.685 908.658,866.864 926.365,898.539C890.42,892.591 857.731,901.989 810.687,927.305C759.972,954.596 734.866,989.223 734.137,1028.71"/>
    </g>
  </g>
</svg>