<svg width="96" height="95" viewBox="0 0 96 95" fill="none" xmlns="http://www.w3.org/2000/svg">
<path d="M65.0373 60.7703C64.0841 60.7703 63.3113 59.9976 63.3113 59.0443C63.3113 58.0911 64.0841 57.3184 65.0373 57.3184" stroke="black" stroke-width="5" stroke-linecap="round" stroke-linejoin="round"/>
<path d="M65.0364 60.7703C65.9897 60.7703 66.7624 59.9976 66.7624 59.0443C66.7624 58.0911 65.9897 57.3184 65.0364 57.3184" stroke="black" stroke-width="5" stroke-linecap="round" stroke-linejoin="round"/>
<path d="M70.3693 76.0652C69.4161 76.0652 68.6434 75.2925 68.6434 74.3392C68.6434 73.386 69.4161 72.6133 70.3693 72.6133" stroke="black" stroke-width="5" stroke-linecap="round" stroke-linejoin="round"/>
<path d="M70.3685 76.0652C71.3217 76.0652 72.0944 75.2925 72.0944 74.3392C72.0944 73.386 71.3217 72.6133 70.3685 72.6133" stroke="black" stroke-width="5" stroke-linecap="round" stroke-linejoin="round"/>
<path d="M23.9608 25.2166C23.0076 25.2166 22.2349 24.4438 22.2349 23.4906C22.2349 22.5374 23.0076 21.7646 23.9608 21.7646" stroke="black" stroke-width="5" stroke-linejoin="bevel"/>
<path d="M23.96 25.2166C24.9132 25.2166 25.6859 24.4438 25.6859 23.4906C25.6859 22.5374 24.9132 21.7646 23.96 21.7646" stroke="black" stroke-width="5" stroke-linejoin="bevel"/>
<path d="M10.4493 42.0933L42.0932 37.3322L37.3321 5.68838L5.68827 10.4495L10.4493 42.0933ZM47.4839 39.5549C47.638 40.579 46.9862 41.538 46.0039 41.7892L45.8037 41.8302L8.22665 47.484L8.02322 47.5037C7.07794 47.5494 6.22681 46.9209 5.99233 46.004L5.95134 45.8038L0.297567 8.22676C0.133225 7.13449 0.885464 6.1158 1.97774 5.95146L39.5548 0.297683C40.6471 0.133341 41.6658 0.88558 41.8301 1.97786L47.4839 39.5549Z" fill="black"/>
<path d="M45.7737 72.9421L73.9421 88.1258L89.1257 59.9574L60.9574 44.7738L45.7737 72.9421ZM76.9199 93.139C76.4285 94.0506 75.3316 94.4265 74.3952 94.0379L74.2104 93.9505L40.7605 75.92L40.5859 75.8137C39.8024 75.2829 39.4988 74.2693 39.8616 73.3952L39.949 73.2104L57.9795 39.7605C58.5037 38.7882 59.7167 38.4249 60.6891 38.949L94.139 56.9796C95.1113 57.5037 95.4746 58.7168 94.9505 59.6891L76.9199 93.139Z" fill="black"/>
</svg>
