<svg width="1000" height="1000" viewBox="0 0 1000 1000" fill="none" xmlns="http://www.w3.org/2000/svg">
<path d="M641.409 729.933C655.184 729.638 659.725 724.6 664.266 704.165C667.391 690.103 675.203 672.134 683.016 663.54C697.078 647.916 703.329 646.353 791.609 631.509C882.234 616.665 882.234 615.884 882.234 436.978C882.234 322.134 879.891 283.072 871.297 265.884C856.453 238.54 813.484 200.259 770.516 177.603C739.266 160.415 728.328 159.634 554.109 158.072C359.578 157.29 285.359 162.759 240.047 181.509C209.578 194.79 145.516 276.822 127.547 326.04C113.484 365.103 113.484 477.602 127.547 510.415C138.484 536.197 193.953 580.728 254.891 611.978C275.984 622.915 279.891 629.166 282.234 657.29L284.578 690.884L325.203 693.228C363.484 695.572 366.609 694.009 371.297 675.259C377.547 649.478 392.391 654.166 397.859 683.853C401.766 704.165 404.891 706.509 433.016 706.509C462.703 706.509 464.266 704.947 466.609 680.728C469.734 649.478 486.141 651.041 491.609 683.853C495.516 705.728 497.859 706.509 540.828 708.853C585.359 711.197 585.359 711.197 590.047 686.978C597.078 654.166 611.922 661.197 616.609 699.478C619.734 725.259 622.859 729.947 640.047 729.947L641.409 729.933ZM322.078 538.54C271.297 538.54 225.203 470.571 237.703 412.759C244.734 383.072 277.547 344.009 308.016 330.728C320.515 325.259 348.641 320.572 368.953 319.79C418.953 319.79 444.734 344.009 444.734 390.103C444.734 416.665 437.703 431.509 408.016 470.572C361.922 530.728 353.328 537.759 322.078 538.54ZM690.047 541.665C640.828 558.071 615.047 557.29 590.047 537.759C527.547 488.54 536.141 386.978 604.891 358.853C653.328 338.541 721.297 361.197 743.172 405.728C773.641 465.103 751.765 520.572 690.047 541.665ZM306.453 831.509C333.016 841.665 368.172 843.228 495.516 841.665C639.266 839.322 651.766 838.54 654.109 825.259C660.359 795.572 648.64 772.915 627.547 772.915C617.391 772.915 606.453 778.384 604.109 784.634C597.078 802.603 581.453 798.697 571.297 776.822C563.484 760.416 556.453 757.29 530.672 757.29C508.016 757.29 499.422 760.416 499.422 769.009C499.422 785.415 478.328 783.853 474.422 766.665C471.297 756.509 460.359 750.259 440.047 747.134C409.578 741.665 390.047 751.041 390.047 769.79C390.047 776.04 384.578 780.728 378.328 780.728C372.078 780.728 366.609 774.478 366.609 766.665C366.609 758.853 362.703 748.697 357.234 743.228C351.765 737.759 331.453 733.853 311.141 733.853C278.328 733.853 274.422 736.197 269.734 754.165C259.578 794.009 271.297 817.447 306.453 831.509Z" fill="white"/>
</svg>
