<svg width="500" height="500" viewBox="0 0 500 500" fill="none" xmlns="http://www.w3.org/2000/svg">
<g clip-path="url(#clip0_2174_167)">
<path d="M500 0H0V500H500V0Z" fill="#C60000"/>
<path d="M298.667 407H162.667C148.972 407 140 398.037 140 384.357V293.786H208V339.071H253.333V157.929H230.667V90H344V157.929H321.333V384.357C321.333 397.094 311.417 407 298.667 407Z" fill="#FFBE26"/>
<path d="M2.48063e-05 148.817L148.816 9.73448e-06L389.232 3.13137e-05L-0.000377718 389.233L2.48063e-05 148.817Z" fill="black"/>
<path d="M83.8145 227.194L97.0515 213.957L61.7527 178.658L48.5157 191.895L83.8145 227.194ZM119.113 218.369L79.4021 258.08L66.1651 244.843L70.5774 240.431L35.2787 205.132L30.8663 209.544L17.6293 196.307L57.3404 156.596C59.6385 154.298 63.867 154.298 66.1651 156.596L119.113 209.544C121.595 212.026 121.595 215.887 119.113 218.369ZM130.212 180.797L143.449 167.56L108.15 132.261L94.9129 145.498L130.212 180.797ZM165.51 171.972L134.624 202.858C131.958 205.524 128.465 205.524 125.799 202.858L72.8511 149.91C70.3692 147.428 70.3692 143.567 72.8511 141.085L103.738 110.199C106.036 107.901 110.264 107.901 112.562 110.199L165.51 163.147C167.992 165.629 167.992 169.49 165.51 171.972ZM216.334 121.149L181.035 156.447C178.369 159.113 174.876 159.113 172.21 156.447L119.262 103.499C116.78 101.017 116.78 97.1566 119.262 94.6746L154.561 59.3759L176.622 81.4376L163.385 94.6746L154.561 85.85L141.324 99.087L176.622 134.386L189.859 121.149L181.035 112.324L194.272 99.087L216.334 121.149ZM258.332 79.1503L223.033 114.449L205.384 96.7997L218.621 83.5626L223.033 87.975L236.27 74.7379L223.033 61.5009L200.971 83.5626C198.306 86.2284 194.813 86.2284 192.147 83.5626L165.673 57.0886C163.191 54.6066 163.191 50.7458 165.673 48.2639L200.971 12.9651L218.621 30.6145L205.384 43.8515L200.971 39.4392L187.734 52.6762L200.971 65.9132L223.033 43.8515C225.331 41.5534 229.56 41.5534 231.858 43.8515L258.332 70.3256C260.814 72.8075 260.814 76.6683 258.332 79.1503Z" fill="white"/>
</g>
<defs>
<clipPath id="clip0_2174_167">
<rect width="500" height="500" fill="white"/>
</clipPath>
</defs>
</svg>
