<svg width="1000" height="1000" viewBox="0 0 1000 1000" fill="none" xmlns="http://www.w3.org/2000/svg">
<path fill-rule="evenodd" clip-rule="evenodd" d="M551.5 364.948C533.35 365.333 518.415 365.728 518.31 365.825C517.662 366.428 508.132 374.22 503.42 378C500.332 380.475 496.165 383.883 494.155 385.573C492.145 387.263 489.375 389.393 488 390.303C484.82 392.41 480.492 396.065 472.967 403L467 408.5L468.392 413.5C469.157 416.25 470.462 420.075 471.287 422C472.115 423.925 473.552 429.268 474.485 433.873C475.417 438.478 477.21 445.003 478.467 448.373C479.725 451.743 481.517 458.325 482.45 463C483.382 467.675 484.967 473.365 485.97 475.645C486.975 477.925 488.115 481.3 488.505 483.145C490.03 490.345 492.012 491.23 504.992 490.498C536.905 488.695 561.332 501.213 568.915 523.253C569.94 526.235 571.587 530.21 572.572 532.088C574.72 536.175 575.767 556.15 574.17 562.5C572.162 570.463 567.01 582.423 564.502 584.933C559.3 590.14 550.035 602.14 545.415 609.655C544.27 611.52 542.215 614.273 540.847 615.773C539.482 617.273 537.532 619.85 536.517 621.5C535.5 623.15 533.85 625.4 532.847 626.5C531.845 627.6 530.007 629.915 528.762 631.645C509.785 658.018 494.34 668.688 475.795 668.235C469.275 668.078 448.495 661.955 444.857 659.12C443.56 658.11 440.97 656.498 439.097 655.538C433.222 652.523 421.405 639.298 418.61 632.608C417.752 630.56 416.185 627.663 415.12 626.17C414.057 624.678 412.44 620.765 411.525 617.478C410.61 614.19 408.7 608.125 407.282 604C404.957 597.245 404.692 594.928 404.6 580.663L404.5 564.828L401.822 562.663C397.105 558.85 393.845 556.56 389.495 554C383.297 550.353 375.925 545.483 372.575 542.823C370.965 541.545 367.762 539.375 365.457 538C359.122 534.223 351.845 529.415 348.58 526.855C346.972 525.595 344.17 523.768 342.35 522.793C340.53 521.815 337.057 519.505 334.635 517.655C320.88 507.155 314.07 514.013 311.932 540.515C310.605 556.94 311.25 612.775 312.845 619.5C316.775 636.088 320.302 647.333 323.165 652.403C327.55 660.163 341.31 674.048 348.06 677.523C349.952 678.498 353.267 680.803 355.43 682.648C357.592 684.49 359.852 686 360.452 686C361.052 686 363.11 687.285 365.022 688.855C366.935 690.425 369.997 692.48 371.827 693.42C373.657 694.363 377.18 696.678 379.655 698.565C382.127 700.455 384.68 702.005 385.327 702.01C385.972 702.015 388.475 703.59 390.89 705.51C393.305 707.43 395.847 709 396.54 709C397.232 709 400.195 710.8 403.122 713C406.05 715.2 408.887 717 409.43 717C409.97 717 412.907 718.738 415.957 720.86C419.005 722.985 423.082 725.235 425.017 725.863C437.552 729.925 441.142 737.728 440.842 760.263C440.482 787.288 439.725 786.708 476.587 787.663C508.507 788.49 514 786.06 514 771.108C514 763.383 521.832 758.118 528.557 761.325C534.1 763.97 535.097 766.53 535.705 779.695C536.627 799.725 538.887 801.665 562.445 802.683C580.417 803.46 581.035 803.295 585.555 796.483L589.21 790.978L589.107 779C588.98 763.56 590.982 760.26 599.75 761.465C608.497 762.668 609.585 764.443 610.247 778.558C610.81 790.57 613.472 799.313 617.282 801.678C619.647 803.145 672.082 802.058 677.08 800.438C684.227 798.12 686.17 793.8 686.785 778.858C687.34 765.38 687.63 764.868 694.72 764.675C706.315 764.36 707.965 767.428 707.985 789.315C708.007 815.988 710.982 820.085 729.04 818.32C740.592 817.19 741.017 816.563 746.177 793.043C747.555 786.753 749.427 781.175 750.875 779.043C752.2 777.095 754.1 773.7 755.1 771.5C760.507 759.59 774.54 751.193 794.185 748.11C800.957 747.048 810.1 745.258 814.5 744.13C818.9 743.005 829.025 741.373 837 740.5C844.975 739.628 855.775 737.843 861 736.535C866.225 735.225 874.025 733.635 878.332 732.998C894.675 730.58 908 721.625 911.59 710.65C912.517 707.818 914.065 703.925 915.03 701.998C919.127 693.83 920.975 654.983 920.975 577C920.975 485.628 918.02 454.953 908.12 443.5C907.167 442.4 905.1 439.475 903.522 437C901.945 434.525 899.495 431.313 898.077 429.865C896.66 428.415 893.025 424.59 890 421.365C886.975 418.138 883.305 414.6 881.842 413.5C880.382 412.4 875.822 408.725 871.707 405.335C867.595 401.945 862.415 398.025 860.197 396.625C857.982 395.225 855.88 393.615 855.527 393.045C855.175 392.473 852.675 391.055 849.975 389.893C847.272 388.733 844.547 387.16 843.92 386.403C842.615 384.833 820.99 374 819.157 374C818.497 374 814.017 372.46 809.205 370.58C803.25 368.253 797.42 366.823 790.96 366.103C779.39 364.813 598.947 363.943 551.5 364.948ZM754.657 517.258C756.392 518.19 761.342 519.913 765.657 521.083C769.97 522.253 775.49 524.513 777.922 526.105C780.352 527.698 782.827 529.003 783.422 529.003C785.447 529.01 799.885 541.488 804.242 547C815.732 561.533 819.477 574.07 819.477 598C819.477 638.193 803.017 660.9 767.5 669.7C764.2 670.518 756.775 672.608 751 674.343C740.845 677.398 739.892 677.5 722 677.488L703.5 677.475L695 673.29C660.63 656.368 639.577 595.705 657.297 564.648C658.597 562.365 660.29 558.925 661.055 557C668.092 539.32 688.192 524.185 715.5 516.005C720.997 514.358 751.055 515.32 754.657 517.258ZM442.02 821.753C434.077 825.743 432.235 834.203 433.262 861.978C433.927 879.893 435.257 883.613 443.097 889.5C449.525 894.328 453.98 896.903 456 896.96C456.825 896.983 460.425 898.39 464 900.088C482.532 908.89 553.557 911.968 669.5 908.993C727.64 907.503 734.645 906.298 738.97 897.063C744.45 885.365 735.197 854.49 725.64 852.578C714.29 850.308 707.007 853.413 695.882 865.258C684.877 876.978 677.017 871.795 669.015 847.543C668.235 845.18 666.757 843.42 664.667 842.363C662.924 841.48 660.665 840.025 659.647 839.13C658.147 837.81 654.857 837.435 642.375 837.16L626.955 836.82L622.057 839.963C616.982 843.22 615 846.655 615 852.195C615 859.543 604.467 862.79 598.077 857.41C595.577 855.308 594.99 854.043 594.94 850.66C594.792 840.258 589.055 834.45 577.5 833.008C541.257 828.488 532.815 831.483 530.312 849.743C528.642 861.923 511 864.715 511 852.8C511 832.138 499.027 823.565 466.605 821.015C449.06 819.635 446.055 819.725 442.02 821.753Z" fill="white"/>
<path d="M321.057 89C330.373 113.964 380.964 242.848 392.408 273.633C409.526 273.409 589.135 273.37 584.927 273.37C542.552 306.153 478.237 356.983 432.255 391.12C443.675 444.506 459.303 513.381 471.325 565C425.042 537.743 376.355 509.471 321.057 475.785C271.468 504.358 222.781 534.134 170.789 565C187.919 499.373 199.973 451.584 213.052 391.12C170.789 356.381 85.737 289.912 65 273.633C65 270.83 239.857 273.447 256.742 273.633C269.364 236.977 311.439 116.37 321.057 89Z" fill="#F8B115"/>
</svg>
