<svg width="1000" height="1000" viewBox="0 0 1000 1000" fill="none" xmlns="http://www.w3.org/2000/svg">
<path fill-rule="evenodd" clip-rule="evenodd" d="M128.533 541.813C137 550.778 232.533 646.813 246.032 661.501C214.533 693.813 101.573 809.552 65 846.119C86.0332 868.314 140.527 925.423 165.383 948.279C203.033 912.814 307.856 808.866 351 765.778C372.61 785.469 453.967 865.256 470.999 882.779C506.999 729.778 549.999 544.778 571.999 441.278C422.499 474.778 268 509.778 128.533 541.813Z" fill="#31A0D8"/>
<path fill-rule="evenodd" clip-rule="evenodd" d="M589.036 52C570.536 100.5 510.036 253.5 496.335 288.867C403.036 294 333.036 297.5 249.036 302.5C308.536 349.563 363.803 392.672 406.536 429.5C481.536 413 558.312 396.493 633.536 380.5C628.536 401.5 596.46 544.208 592.192 567C660.536 613.5 739.811 667.01 806.036 712C782.536 630.5 759.536 550 736.01 465.18C773.036 436 912.036 321.5 935.036 302.5C855.036 298.5 724.036 290.5 681.272 288.272C670.536 259.5 605.036 91.5 589.036 52Z" fill="#F8B115"/>
</svg>
